<svg xmlns="http://www.w3.org/2000/svg" viewBox="0 0 164.49 164.49">
  <rect width="164.49" height="164.49" rx="34.5" ry="34.5" fill="#15120E"/>
  <path fill="#fff" d="M24.43,110.94v-1.71l6.6-2.31v-49.34l-6.6-2.31v-1.71h15.42v57.39h-15.42ZM72.57,81.47c0-8.02-2.33-13.95-6.98-17.78-4.65-3.83-11.02-5.74-19.1-5.74h-11.56l-.34-4.41h13.96c7.48,0,13.7.99,18.65,2.96,4.95,1.97,8.66,4.95,11.11,8.95,2.46,4,3.68,9.02,3.68,15.08,0,6.42-1.46,11.9-4.37,16.43-2.91,4.53-6.89,7.99-11.93,10.39-5.04,2.4-10.73,3.6-17.07,3.6h-14.05l.34-4.41h12.42c5.05,0,9.47-.86,13.26-2.57,3.78-1.71,6.72-4.41,8.82-8.1,2.1-3.68,3.15-8.48,3.15-14.39Z"/>
  <path fill="#fff" d="M111.1,52.6c4.25,0,8.14.71,11.67,2.14,3.53,1.43,6.58,3.45,9.17,6.06,2.58,2.61,4.58,5.73,6,9.36,1.41,3.63,2.12,7.62,2.12,11.99s-.71,8.37-2.14,11.99c-1.43,3.63-3.46,6.77-6.08,9.42-2.63,2.66-5.72,4.7-9.27,6.15s-7.46,2.16-11.71,2.16-8.15-.71-11.69-2.14c-3.54-1.43-6.6-3.45-9.19-6.06-2.58-2.61-4.58-5.73-6-9.36-1.41-3.63-2.12-7.62-2.12-11.99s.71-8.37,2.14-11.99c1.43-3.63,3.45-6.77,6.08-9.42,2.63-2.66,5.72-4.7,9.29-6.15,3.57-1.44,7.48-2.16,11.74-2.16ZM111.36,107.43c3.91,0,7.31-.93,10.19-2.81,2.88-1.87,5.12-4.56,6.7-8.07,1.58-3.51,2.38-7.72,2.38-12.64,0-5.77-.86-10.64-2.57-14.63-1.71-3.98-4.08-7.02-7.09-9.1-3.01-2.08-6.47-3.13-10.39-3.13s-7.32.94-10.22,2.81c-2.9,1.87-5.14,4.56-6.72,8.07-1.58,3.51-2.38,7.72-2.38,12.64,0,5.74.86,10.61,2.57,14.61,1.71,4,4.08,7.04,7.11,9.12,3.03,2.08,6.5,3.13,10.41,3.13Z"/>
</svg>
