<svg xmlns="http://www.w3.org/2000/svg" viewBox="0 0 164.49 164.49">
  <rect width="164.49" height="164.49" rx="34.5" ry="34.5" fill="#15120E"/>
  <path fill="#fff" d="M41.94,110.4c7.51.27,15.03.39,22.81.07,10.45-.44,19.35-7.8,23.17-15.88,4.95-10.48,3.2-21.25-3.56-30.29,4.45-3.74,9.45-5.76,15.19-5.92,8.81,14.08,9.4,31.24,1.11,45.73-7.71,13.47-22.31,22.31-38.94,22.26l-35.45-.09V38.12s36.52.16,36.52.16c3.96.02,8.25.8,12.43,1.8-5.73,4.52-10.1,8.43-14.79,13.84l-18.48.12v56.36Z"/>
  <path fill="#fff" d="M101.67,110.68c13.03-1.13,23.6-10.41,26.14-22.43,2.84-13.4-4.05-25.87-14.9-31.3-12.55-6.28-26.73-2.48-34.67,7.42-8.52,10.62-8.53,24.75.04,35.88-4.34,3.47-9.01,5.39-14.92,6.15-11.86-17.89-8.88-41.29,6.23-55.91,15.39-14.89,39.5-16.57,56.83-3.67,16.96,12.63,22.76,35.81,13.28,54.83s-31.3,29.22-52.75,22.62c5.91-4.15,10.54-8.01,14.72-13.58Z"/>
</svg>
