<?xml version="1.0" encoding="UTF-8"?>
<svg xmlns="http://www.w3.org/2000/svg" viewBox="0 0 107.93 121.9">
  <g fill="#3D3633">
    <path d="M92.28,34.02c-1.67-1.32-3.59-1.97-5.77-1.97-2.06,0-3.89.53-5.48,1.58-1.59,1.05-2.84,2.64-3.74,4.77-.9,2.13-1.35,4.8-1.35,8.02,0,3.9.47,7.16,1.41,9.79.94,2.62,2.25,4.59,3.93,5.91,1.68,1.32,3.61,1.97,5.77,1.97s3.89-.53,5.48-1.58c1.59-1.05,2.84-2.65,3.74-4.79.9-2.14,1.35-4.81,1.35-8.01,0-3.92-.47-7.19-1.42-9.8-.95-2.61-2.25-4.58-3.92-5.89Z"/>
    <path d="M40.46,50.78h-3.64v31.07h4.15c2.76,0,5.18-.54,7.26-1.63,2.07-1.09,3.69-2.81,4.84-5.17,1.15-2.36,1.73-5.43,1.73-9.22,0-5.21-1.28-9.02-3.83-11.43-2.56-2.41-6.06-3.62-10.51-3.62Z"/>
    <path d="M106.72,51.05c-.03-.14-.06-.27-.09-.41-.21,1.92-.65,3.73-1.33,5.41-.99,2.42-2.4,4.52-4.22,6.28s-3.97,3.12-6.46,4.08c-2.49.96-5.23,1.43-8.22,1.43s-5.61-.47-8.01-1.41c-2.4-.94-4.47-2.27-6.21-4s-3.07-3.81-4.01-6.24c-.94-2.42-1.41-5.11-1.41-8.07s.5-5.61,1.49-8.04c.99-2.42,2.4-4.52,4.22-6.28,1.82-1.76,3.97-3.12,6.46-4.08,2.49-.96,5.23-1.43,8.22-1.43s5.6.47,8.01,1.41c2.13.83,3.98,1.99,5.58,3.44C89.39,10.2,66.19-3.59,42.68.82,13.54,6.29-5.03,37.64,1.2,70.85c6.23,33.21,34.9,55.7,64.04,50.23s47.71-36.82,41.48-70.03ZM41.88,85.35h-17.95v-1.25l4.12-1.65v-32.27l-4.12-1.65v-1.25h17.89c4.96,0,9.08.65,12.37,1.96,3.29,1.31,5.74,3.29,7.37,5.94,1.63,2.65,2.44,5.98,2.44,10,0,4.26-.97,7.89-2.9,10.89-1.93,3-4.57,5.3-7.91,6.89-3.34,1.59-7.12,2.39-11.32,2.39ZM91.46,80.63c-1.21,1.75-2.42,3.23-3.64,4.45-1.22,1.22-2.51,2.25-3.89,3.1-1.37.85-2.91,1.62-4.62,2.31-1.69.68-3.33,1.19-4.91,1.52-1.58.34-3.23.49-4.95.45-1.72-.03-3.62-.26-5.7-.69-2.08-.43-4.48-1.06-7.19-1.9l.35-1.44c2.34.4,4.48.64,6.41.72,1.93.08,3.72.02,5.36-.18,1.64-.2,3.19-.51,4.67-.92s2.94-.92,4.39-1.5c1.45-.58,2.85-1.24,4.21-1.96s2.7-1.58,4.02-2.57c1.32-.99,2.64-2.18,3.97-3.58,1.33-1.39,2.71-3.05,4.13-4.97l1.25.8c-1.37,2.48-2.66,4.6-3.87,6.35Z"/>
  </g>
</svg>
